<svg width="28" height="134" viewBox="0 0 28 134" fill="none" xmlns="http://www.w3.org/2000/svg">
<g opacity="0.15" filter="url(#filter0_f_8_1174)">
<path d="M1 122.202C1 121.111 2.26316 119.291 3.52632 119.109C4.78947 118.927 13 119.028 13 119.028V132.028C13 132.028 11.1053 129.481 10.4737 129.299C9.84211 129.117 9.21053 129.299 8.89474 129.117C8.57895 128.935 8.89474 128.571 8.26316 128.207C7.63158 127.843 6.36842 128.207 5.10526 127.297C3.84211 126.387 4.26316 125.841 3.84211 125.478C3.42105 125.114 2.57895 124.932 1.94737 124.568C1.31579 124.204 1 123.294 1 122.202Z" fill="black"/>
<path d="M25 122.202C25 121.111 23.7368 119.291 22.4737 119.109C21.2105 118.927 13 119.028 13 119.028V132.028C13 132.028 14.8947 129.481 15.5263 129.299C16.1579 129.117 16.7895 129.299 17.1053 129.117C17.4211 128.935 17.1053 128.571 17.7368 128.207C18.3684 127.843 19.6316 128.207 20.8947 127.297C22.1579 126.387 21.7368 125.841 22.1579 125.478C22.5789 125.114 23.4211 124.932 24.0526 124.568C24.6842 124.204 25 123.294 25 122.202Z" fill="black"/>
</g>
<g opacity="0.15" filter="url(#filter1_f_8_1174)">
<path d="M1 10.8258C1 11.9176 2.26316 13.7372 3.52632 13.9191C4.78947 14.1011 13 14 13 14V1C13 1 11.1053 3.54743 10.4737 3.72939C9.84211 3.91135 9.21053 3.72939 8.89474 3.91135C8.57895 4.09331 8.89474 4.45723 8.26316 4.82115C7.63158 5.18507 6.36842 4.82115 5.10526 5.73095C3.84211 6.64075 4.26316 7.18663 3.84211 7.55054C3.42105 7.91446 2.57895 8.09642 1.94737 8.46034C1.31579 8.82426 1 9.73406 1 10.8258Z" fill="black"/>
<path d="M25 10.8258C25 11.9176 23.7368 13.7372 22.4737 13.9191C21.2105 14.1011 13 14 13 14V1C13 1 14.8947 3.54743 15.5263 3.72939C16.1579 3.91135 16.7895 3.72939 17.1053 3.91135C17.4211 4.09331 17.1053 4.45723 17.7368 4.82115C18.3684 5.18507 19.6316 4.82115 20.8947 5.73095C22.1579 6.64075 21.7368 7.18663 22.1579 7.55054C22.5789 7.91446 23.4211 8.09642 24.0526 8.46034C24.6842 8.82426 25 9.73406 25 10.8258Z" fill="black"/>
</g>
<g opacity="0.05" filter="url(#filter2_f_8_1174)">
<path d="M5.98584 14.514L5.98584 119.014H5.48584C4.93356 119.014 4.48584 118.566 4.48584 118.014L4.48584 15.514C4.48584 14.9618 4.93356 14.514 5.48584 14.514H5.98584Z" fill="black"/>
</g>
<rect x="26" y="13" width="105" height="20" rx="1" transform="rotate(90 26 13)" fill="url(#paint0_radial_8_1174)"/>
<path d="M4 121.202C4 120.11 5.26316 118.291 6.52632 118.109C7.78947 117.927 16 118.028 16 118.028V131.028C16 131.028 14.1053 128.481 13.4737 128.299C12.8421 128.117 12.2105 128.299 11.8947 128.117C11.5789 127.935 11.8947 127.571 11.2632 127.207C10.6316 126.843 9.36842 127.207 8.10526 126.297C6.84211 125.387 7.26316 124.841 6.84211 124.477C6.42105 124.114 5.57895 123.932 4.94737 123.568C4.31579 123.204 4 122.294 4 121.202Z" fill="#DF9D01"/>
<path d="M28 121.202C28 120.11 26.7368 118.291 25.4737 118.109C24.2105 117.927 16 118.028 16 118.028V131.028C16 131.028 17.8947 128.481 18.5263 128.299C19.1579 128.117 19.7895 128.299 20.1053 128.117C20.4211 127.935 20.1053 127.571 20.7368 127.207C21.3684 126.843 22.6316 127.207 23.8947 126.297C25.1579 125.387 24.7368 124.841 25.1579 124.477C25.5789 124.114 26.4211 123.932 27.0526 123.568C27.6842 123.204 28 122.294 28 121.202Z" fill="#DF9D01"/>
<path d="M4 121.202C4 120.11 5.26316 118.291 6.52632 118.109C7.78947 117.927 16 118.028 16 118.028V131.028C16 131.028 14.1053 128.481 13.4737 128.299C12.8421 128.117 12.2105 128.299 11.8947 128.117C11.5789 127.935 11.8947 127.571 11.2632 127.207C10.6316 126.843 9.36842 127.207 8.10526 126.297C6.84211 125.387 7.26316 124.841 6.84211 124.477C6.42105 124.114 5.57895 123.932 4.94737 123.568C4.31579 123.204 4 122.294 4 121.202Z" fill="url(#paint1_radial_8_1174)"/>
<path d="M28 121.202C28 120.11 26.7368 118.291 25.4737 118.109C24.2105 117.927 16 118.028 16 118.028V131.028C16 131.028 17.8947 128.481 18.5263 128.299C19.1579 128.117 19.7895 128.299 20.1053 128.117C20.4211 127.935 20.1053 127.571 20.7368 127.207C21.3684 126.843 22.6316 127.207 23.8947 126.297C25.1579 125.387 24.7368 124.841 25.1579 124.477C25.5789 124.114 26.4211 123.932 27.0526 123.568C27.6842 123.204 28 122.294 28 121.202Z" fill="url(#paint2_radial_8_1174)"/>
<path d="M4 9.82582C4 10.9176 5.26316 12.7372 6.52632 12.9191C7.78947 13.1011 16 13 16 13V0C16 0 14.1053 2.54743 13.4737 2.72939C12.8421 2.91135 12.2105 2.72939 11.8947 2.91135C11.5789 3.09331 11.8947 3.45723 11.2632 3.82115C10.6316 4.18507 9.36842 3.82115 8.10526 4.73095C6.84211 5.64075 7.26316 6.18663 6.84211 6.55054C6.42105 6.91446 5.57895 7.09642 4.94737 7.46034C4.31579 7.82426 4 8.73406 4 9.82582Z" fill="#DF9D01"/>
<path d="M28 9.82582C28 10.9176 26.7368 12.7372 25.4737 12.9191C24.2105 13.1011 16 13 16 13V0C16 0 17.8947 2.54743 18.5263 2.72939C19.1579 2.91135 19.7895 2.72939 20.1053 2.91135C20.4211 3.09331 20.1053 3.45723 20.7368 3.82115C21.3684 4.18507 22.6316 3.82115 23.8947 4.73095C25.1579 5.64075 24.7368 6.18663 25.1579 6.55054C25.5789 6.91446 26.4211 7.09642 27.0526 7.46034C27.6842 7.82426 28 8.73406 28 9.82582Z" fill="#DF9D01"/>
<path d="M4 9.82582C4 10.9176 5.26316 12.7372 6.52632 12.9191C7.78947 13.1011 16 13 16 13V0C16 0 14.1053 2.54743 13.4737 2.72939C12.8421 2.91135 12.2105 2.72939 11.8947 2.91135C11.5789 3.09331 11.8947 3.45723 11.2632 3.82115C10.6316 4.18507 9.36842 3.82115 8.10526 4.73095C6.84211 5.64075 7.26316 6.18663 6.84211 6.55054C6.42105 6.91446 5.57895 7.09642 4.94737 7.46034C4.31579 7.82426 4 8.73406 4 9.82582Z" fill="url(#paint3_radial_8_1174)"/>
<path d="M28 9.82582C28 10.9176 26.7368 12.7372 25.4737 12.9191C24.2105 13.1011 16 13 16 13V0C16 0 17.8947 2.54743 18.5263 2.72939C19.1579 2.91135 19.7895 2.72939 20.1053 2.91135C20.4211 3.09331 20.1053 3.45723 20.7368 3.82115C21.3684 4.18507 22.6316 3.82115 23.8947 4.73095C25.1579 5.64075 24.7368 6.18663 25.1579 6.55054C25.5789 6.91446 26.4211 7.09642 27.0526 7.46034C27.6842 7.82426 28 8.73406 28 9.82582Z" fill="url(#paint4_radial_8_1174)"/>
<defs>
<filter id="filter0_f_8_1174" x="0" y="118" width="26" height="15.028" filterUnits="userSpaceOnUse" color-interpolation-filters="sRGB">
<feFlood flood-opacity="0" result="BackgroundImageFix"/>
<feBlend mode="normal" in="SourceGraphic" in2="BackgroundImageFix" result="shape"/>
<feGaussianBlur stdDeviation="0.5" result="effect1_foregroundBlur_8_1174"/>
</filter>
<filter id="filter1_f_8_1174" x="0" y="0" width="26" height="15.028" filterUnits="userSpaceOnUse" color-interpolation-filters="sRGB">
<feFlood flood-opacity="0" result="BackgroundImageFix"/>
<feBlend mode="normal" in="SourceGraphic" in2="BackgroundImageFix" result="shape"/>
<feGaussianBlur stdDeviation="0.5" result="effect1_foregroundBlur_8_1174"/>
</filter>
<filter id="filter2_f_8_1174" x="3.48584" y="13.514" width="3.5" height="106.5" filterUnits="userSpaceOnUse" color-interpolation-filters="sRGB">
<feFlood flood-opacity="0" result="BackgroundImageFix"/>
<feBlend mode="normal" in="SourceGraphic" in2="BackgroundImageFix" result="shape"/>
<feGaussianBlur stdDeviation="0.5" result="effect1_foregroundBlur_8_1174"/>
</filter>
<radialGradient id="paint0_radial_8_1174" cx="0" cy="0" r="1" gradientUnits="userSpaceOnUse" gradientTransform="translate(43.014 31.0142) rotate(72.0506) scale(37.3162 195.91)">
<stop offset="0.0543348" stop-color="#F6F6F6" stop-opacity="0"/>
<stop offset="0.368819" stop-color="#F6F6F6" stop-opacity="0.52"/>
<stop offset="0.646036" stop-color="#F6F6F6" stop-opacity="0"/>
</radialGradient>
<radialGradient id="paint1_radial_8_1174" cx="0" cy="0" r="1" gradientUnits="userSpaceOnUse" gradientTransform="translate(12.4858 136.514) rotate(-121.562) scale(82.1523 44.595)">
<stop offset="0.21379" stop-color="#F6F6F6" stop-opacity="0"/>
<stop offset="0.392998" stop-color="#F6F6F6" stop-opacity="0.58"/>
<stop offset="0.591481" stop-color="#F6F6F6" stop-opacity="0"/>
</radialGradient>
<radialGradient id="paint2_radial_8_1174" cx="0" cy="0" r="1" gradientUnits="userSpaceOnUse" gradientTransform="translate(12.4858 136.514) rotate(-121.562) scale(82.1523 44.595)">
<stop offset="0.21379" stop-color="#F6F6F6" stop-opacity="0"/>
<stop offset="0.392998" stop-color="#F6F6F6" stop-opacity="0.58"/>
<stop offset="0.591481" stop-color="#F6F6F6" stop-opacity="0"/>
</radialGradient>
<radialGradient id="paint3_radial_8_1174" cx="0" cy="0" r="1" gradientUnits="userSpaceOnUse" gradientTransform="translate(5.48584 9.01404) rotate(43.1283) scale(54.1226 29.3795)">
<stop offset="0.283211" stop-color="#F6F6F6" stop-opacity="0"/>
<stop offset="0.4536" stop-color="#F6F6F6" stop-opacity="0.58"/>
<stop offset="0.618667" stop-color="#F6F6F6" stop-opacity="0"/>
</radialGradient>
<radialGradient id="paint4_radial_8_1174" cx="0" cy="0" r="1" gradientUnits="userSpaceOnUse" gradientTransform="translate(5.48584 9.01404) rotate(43.1283) scale(54.1226 29.3795)">
<stop offset="0.283211" stop-color="#F6F6F6" stop-opacity="0"/>
<stop offset="0.4536" stop-color="#F6F6F6" stop-opacity="0.58"/>
<stop offset="0.618667" stop-color="#F6F6F6" stop-opacity="0"/>
</radialGradient>
</defs>
</svg>
