<svg width="433" height="247" viewBox="0 0 433 247" fill="none" xmlns="http://www.w3.org/2000/svg">
<rect width="433" height="247" rx="10" fill="black"/>
<path fill-rule="evenodd" clip-rule="evenodd" d="M409.663 13.2625L404.406 26.6918L418.27 23.9292L415.923 21.0203L415.536 17.2169L411.97 16.1206L409.663 13.2625ZM410.496 18.7522L408.562 23.1541L413.132 22.0187L412.537 19.7702L410.496 18.7522Z" fill="white"/>
<path d="M413.568 26.1303C413.568 26.1303 413.451 25.64 412.986 25.715C412.522 25.79 412.112 26.2374 411.957 26.7649C411.803 27.2924 411.889 27.6258 412.223 27.9023C412.558 28.1788 413.022 28.1037 413.423 27.9108C413.824 27.7179 414.466 27.1351 414.765 26.5303C415.064 25.9256 415.13 25.4561 414.784 24.813C414.438 24.17 413.801 24 413.801 24" stroke="white" stroke-linecap="round"/>
<path d="M406.442 18.0256C406.442 18.0256 406.898 18.2406 406.729 18.6796C406.561 19.1186 406.039 19.4285 405.491 19.4721C404.943 19.5156 404.634 19.3631 404.432 18.9792C404.23 18.5954 404.398 18.1564 404.669 17.8035C404.94 17.4506 405.642 16.9408 406.295 16.7718C406.948 16.6028 407.421 16.6338 407.98 17.1039C408.539 17.5741 408.575 18.2328 408.575 18.2328" stroke="white" stroke-linecap="round"/>
<path d="M407.476 14.9492C407.476 14.9492 407.939 15.1478 408.156 14.7307C408.373 14.3135 408.259 13.7174 407.928 13.2785C407.597 12.8395 407.278 12.7097 406.857 12.813C406.435 12.9162 406.218 13.3334 406.134 13.7701C406.049 14.2069 406.134 15.0702 406.44 15.6711C406.747 16.272 407.084 16.6054 407.807 16.7116C408.529 16.8179 409.046 16.4079 409.046 16.4079" stroke="white" stroke-linecap="round"/>
<path d="M416.617 26.1519C416.617 26.1519 416.592 25.6484 417.059 25.5905C417.525 25.5326 418.044 25.8473 418.34 26.3104C418.637 26.7735 418.647 27.1178 418.404 27.4768C418.16 27.8358 417.693 27.8937 417.255 27.8207C416.816 27.7477 416.036 27.3681 415.579 26.8712C415.123 26.3742 414.928 25.9422 415.08 25.2279C415.232 24.5137 415.579 23.5001 415.579 23.5001" stroke="white" stroke-linecap="round"/>
<path fill-rule="evenodd" clip-rule="evenodd" d="M409.663 233.697L404.405 220.268L418.27 223.03L415.923 225.939L415.536 229.743L411.969 230.839L409.663 233.697ZM410.496 228.207L408.561 223.805L413.132 224.941L412.537 227.189L410.496 228.207Z" fill="white"/>
<path d="M413.567 220.829C413.567 220.829 413.45 221.32 412.986 221.245C412.522 221.17 412.112 220.722 411.957 220.195C411.803 219.667 411.889 219.334 412.223 219.057C412.558 218.781 413.022 218.856 413.422 219.049C413.823 219.242 414.466 219.824 414.765 220.429C415.064 221.034 415.13 221.503 414.784 222.147C414.438 222.79 413.801 222.96 413.801 222.96" stroke="white" stroke-linecap="round"/>
<path d="M406.441 228.934C406.441 228.934 406.897 228.719 406.729 228.28C406.561 227.841 406.039 227.531 405.491 227.488C404.943 227.444 404.634 227.597 404.432 227.98C404.23 228.364 404.398 228.803 404.669 229.156C404.94 229.509 405.641 230.019 406.295 230.188C406.948 230.357 407.421 230.326 407.98 229.856C408.538 229.386 408.574 228.727 408.574 228.727" stroke="white" stroke-linecap="round"/>
<path d="M407.476 232.01C407.476 232.01 407.939 231.812 408.156 232.229C408.373 232.646 408.259 233.242 407.928 233.681C407.597 234.12 407.278 234.25 406.856 234.147C406.435 234.043 406.218 233.626 406.134 233.189C406.049 232.753 406.133 231.889 406.44 231.289C406.747 230.688 407.084 230.354 407.806 230.248C408.529 230.142 409.046 230.552 409.046 230.552" stroke="white" stroke-linecap="round"/>
<path d="M416.617 220.808C416.617 220.808 416.592 221.311 417.059 221.369C417.525 221.427 418.044 221.112 418.34 220.649C418.636 220.186 418.647 219.842 418.403 219.483C418.16 219.124 417.693 219.066 417.254 219.139C416.816 219.212 416.036 219.592 415.579 220.089C415.123 220.585 414.928 221.017 415.08 221.732C415.232 222.446 415.579 223.46 415.579 223.46" stroke="white" stroke-linecap="round"/>
<path fill-rule="evenodd" clip-rule="evenodd" d="M22.3196 13.2625L27.5773 26.6918L13.7127 23.9292L16.0599 21.0203L16.4465 17.2169L20.0134 16.1206L22.3196 13.2625ZM21.4865 18.7522L23.4212 23.1541L18.8508 22.0187L19.4459 19.7702L21.4865 18.7522Z" fill="white"/>
<path d="M18.4152 26.1303C18.4152 26.1303 18.5324 25.64 18.9965 25.715C19.4607 25.79 19.8708 26.2374 20.0254 26.7649C20.1801 27.2924 20.0939 27.6258 19.7595 27.9023C19.4251 28.1788 18.961 28.1037 18.5602 27.9108C18.1594 27.7179 17.5169 27.1351 17.2179 26.5303C16.9189 25.9256 16.8525 25.4561 17.1985 24.813C17.5445 24.17 18.1819 24 18.1819 24" stroke="white" stroke-linecap="round"/>
<path d="M25.5412 18.0256C25.5412 18.0256 25.0852 18.2406 25.2536 18.6796C25.4219 19.1186 25.9437 19.4285 26.4917 19.4721C27.0397 19.5156 27.3484 19.3631 27.5507 18.9792C27.7529 18.5954 27.5846 18.1564 27.3138 17.8035C27.043 17.4506 26.3412 16.9408 25.688 16.7718C25.0349 16.6028 24.5618 16.6338 24.0031 17.1039C23.4443 17.5741 23.4082 18.2328 23.4082 18.2328" stroke="white" stroke-linecap="round"/>
<path d="M24.5069 14.9492C24.5069 14.9492 24.0436 15.1478 23.8268 14.7307C23.6099 14.3135 23.7241 13.7174 24.055 13.2785C24.386 12.8395 24.7049 12.7097 25.1264 12.813C25.5478 12.9162 25.7646 13.3334 25.849 13.7701C25.9335 14.2069 25.8493 15.0702 25.5426 15.6711C25.2358 16.272 24.8988 16.6054 24.1763 16.7116C23.4538 16.8179 22.937 16.4079 22.937 16.4079" stroke="white" stroke-linecap="round"/>
<path d="M15.366 26.1519C15.366 26.1519 15.3907 25.6484 14.9241 25.5905C14.4575 25.5326 13.9386 25.8473 13.6425 26.3104C13.3463 26.7735 13.3357 27.1178 13.5794 27.4768C13.823 27.8358 14.2896 27.8937 14.7284 27.8207C15.1672 27.7477 15.9471 27.3681 16.4034 26.8712C16.8598 26.3742 17.0549 25.9422 16.9028 25.2279C16.7506 24.5137 16.4034 23.5001 16.4034 23.5001" stroke="white" stroke-linecap="round"/>
<path fill-rule="evenodd" clip-rule="evenodd" d="M22.3196 233.697L27.5773 220.268L13.7127 223.03L16.0599 225.939L16.4465 229.743L20.0134 230.839L22.3196 233.697ZM21.4865 228.207L23.4212 223.805L18.8508 224.941L19.4459 227.189L21.4865 228.207Z" fill="white"/>
<path d="M18.4152 220.829C18.4152 220.829 18.5324 221.32 18.9965 221.245C19.4607 221.17 19.8708 220.722 20.0254 220.195C20.1801 219.667 20.0939 219.334 19.7595 219.057C19.4251 218.781 18.961 218.856 18.5602 219.049C18.1594 219.242 17.5169 219.824 17.2179 220.429C16.9189 221.034 16.8525 221.503 17.1985 222.147C17.5445 222.79 18.1819 222.96 18.1819 222.96" stroke="white" stroke-linecap="round"/>
<path d="M25.5412 228.934C25.5412 228.934 25.0852 228.719 25.2536 228.28C25.4219 227.841 25.9437 227.531 26.4917 227.488C27.0397 227.444 27.3484 227.597 27.5507 227.98C27.7529 228.364 27.5846 228.803 27.3138 229.156C27.043 229.509 26.3412 230.019 25.688 230.188C25.0349 230.357 24.5618 230.326 24.0031 229.856C23.4443 229.386 23.4082 228.727 23.4082 228.727" stroke="white" stroke-linecap="round"/>
<path d="M24.5069 232.01C24.5069 232.01 24.0436 231.812 23.8268 232.229C23.6099 232.646 23.7241 233.242 24.055 233.681C24.386 234.12 24.7049 234.25 25.1264 234.147C25.5478 234.043 25.7646 233.626 25.849 233.189C25.9335 232.753 25.8493 231.889 25.5426 231.289C25.2358 230.688 24.8988 230.354 24.1763 230.248C23.4538 230.142 22.937 230.552 22.937 230.552" stroke="white" stroke-linecap="round"/>
<path d="M15.366 220.808C15.366 220.808 15.3907 221.311 14.9241 221.369C14.4575 221.427 13.9386 221.112 13.6425 220.649C13.3463 220.186 13.3357 219.842 13.5794 219.483C13.823 219.124 14.2896 219.066 14.7284 219.139C15.1672 219.212 15.9471 219.592 16.4034 220.089C16.8598 220.585 17.0549 221.017 16.9028 221.732C16.7506 222.446 16.4034 223.46 16.4034 223.46" stroke="white" stroke-linecap="round"/>
<line x1="17.6958" y1="216.834" x2="17.6958" y2="30.1664" stroke="white"/>
<line x1="414.219" y1="216.834" x2="414.219" y2="30.1664" stroke="white"/>
<line x1="229.881" y1="229.061" x2="402.328" y2="229.061" stroke="white"/>
<line x1="28.522" y1="229.061" x2="200.968" y2="229.061" stroke="white"/>
<line x1="229.881" y1="17.9998" x2="402.328" y2="17.9998" stroke="white"/>
<line x1="28.522" y1="17.9998" x2="200.968" y2="17.9998" stroke="white"/>
<rect width="10.467" height="10.467" transform="matrix(0.697587 -0.7165 0.697587 0.7165 208.123 228.5)" fill="white"/>
<path d="M203.033 228.533L208.454 225.318L209.745 228.533L208.454 231.747L203.033 228.533Z" fill="white"/>
<ellipse cx="205.333" cy="227.183" rx="0.985676" ry="1.0124" fill="white"/>
<path d="M203.878 226.694L204.805 226.529L204.481 227.436L203.878 226.694Z" fill="white"/>
<ellipse cx="0.985676" cy="1.0124" rx="0.985676" ry="1.0124" transform="matrix(1 0 0 -1 204.348 230.895)" fill="white"/>
<path d="M203.878 230.371L204.805 230.536L204.481 229.629L203.878 230.371Z" fill="white"/>
<path d="M227.3 228.533L221.878 225.318L220.588 228.533L221.878 231.747L227.3 228.533Z" fill="white"/>
<ellipse cx="0.985676" cy="1.0124" rx="0.985676" ry="1.0124" transform="matrix(-1 0 0 1 225.986 226.17)" fill="white"/>
<path d="M226.455 226.694L225.528 226.529L225.852 227.436L226.455 226.694Z" fill="white"/>
<ellipse cx="225" cy="229.883" rx="0.985676" ry="1.0124" transform="rotate(180 225 229.883)" fill="white"/>
<path d="M226.455 230.371L225.528 230.536L225.852 229.629L226.455 230.371Z" fill="white"/>
<path d="M208.229 224.436C208.229 224.436 208.068 224.914 207.613 224.798C207.157 224.681 206.789 224.199 206.682 223.659C206.576 223.12 206.692 222.796 207.05 222.55C207.408 222.305 207.863 222.422 208.245 222.65C208.627 222.878 209.214 223.516 209.457 224.146C209.701 224.775 209.725 225.249 209.322 225.858C208.919 226.467 208.269 226.579 208.269 226.579" stroke="white" stroke-linecap="round"/>
<path d="M208.42 232.489C208.42 232.489 208.084 232.113 207.711 232.4C207.338 232.686 207.19 233.275 207.305 233.812C207.419 234.35 207.653 234.602 208.079 234.687C208.505 234.771 208.877 234.485 209.138 234.124C209.399 233.764 209.688 232.946 209.664 232.272C209.639 231.598 209.475 231.153 208.865 230.752C208.255 230.35 207.613 230.503 207.613 230.503" stroke="white" stroke-linecap="round"/>
<path d="M222.237 224.436C222.237 224.436 222.398 224.914 222.853 224.798C223.309 224.681 223.677 224.199 223.783 223.659C223.89 223.12 223.774 222.796 223.416 222.55C223.058 222.305 222.603 222.422 222.221 222.65C221.839 222.878 221.252 223.516 221.008 224.146C220.765 224.775 220.741 225.249 221.144 225.858C221.546 226.467 222.196 226.579 222.196 226.579" stroke="white" stroke-linecap="round"/>
<path d="M222.046 232.489C222.046 232.489 222.382 232.113 222.755 232.4C223.127 232.686 223.276 233.275 223.161 233.812C223.047 234.35 222.812 234.602 222.387 234.687C221.961 234.771 221.588 234.485 221.327 234.124C221.066 233.764 220.778 232.946 220.802 232.272C220.826 231.598 220.991 231.153 221.601 230.752C222.211 230.35 222.853 230.503 222.853 230.503" stroke="white" stroke-linecap="round"/>
<rect width="10.467" height="10.467" transform="matrix(0.697587 -0.7165 0.697587 0.7165 208.123 18.4996)" fill="white"/>
<path d="M203.033 18.5326L208.454 15.3178L209.745 18.5326L208.454 21.7474L203.033 18.5326Z" fill="white"/>
<ellipse cx="205.333" cy="17.1828" rx="0.985676" ry="1.0124" fill="white"/>
<path d="M203.878 16.6944L204.805 16.5288L204.481 17.4364L203.878 16.6944Z" fill="white"/>
<ellipse cx="0.985676" cy="1.0124" rx="0.985676" ry="1.0124" transform="matrix(1 0 0 -1 204.348 20.8949)" fill="white"/>
<path d="M203.878 20.3708L204.805 20.5364L204.481 19.6288L203.878 20.3708Z" fill="white"/>
<path d="M227.3 18.5328L221.878 15.318L220.588 18.5327L221.878 21.7476L227.3 18.5328Z" fill="white"/>
<ellipse cx="0.985676" cy="1.0124" rx="0.985676" ry="1.0124" transform="matrix(-1 0 0 1 225.986 16.1704)" fill="white"/>
<path d="M226.455 16.6945L225.528 16.5289L225.852 17.4365L226.455 16.6945Z" fill="white"/>
<ellipse cx="225" cy="19.8826" rx="0.985676" ry="1.0124" transform="rotate(180 225 19.8826)" fill="white"/>
<path d="M226.455 20.3709L225.528 20.5365L225.852 19.6289L226.455 20.3709Z" fill="white"/>
<path d="M208.229 14.4364C208.229 14.4364 208.068 14.9142 207.613 14.7976C207.157 14.6811 206.789 14.1986 206.682 13.6593C206.576 13.12 206.692 12.7957 207.05 12.5505C207.408 12.3052 207.863 12.4218 208.245 12.65C208.627 12.8782 209.214 13.5165 209.457 14.1458C209.701 14.7751 209.725 15.2486 209.322 15.8579C208.919 16.4672 208.269 16.579 208.269 16.579" stroke="white" stroke-linecap="round"/>
<path d="M208.42 22.4888C208.42 22.4888 208.084 22.113 207.711 22.3996C207.338 22.6861 207.19 23.2746 207.305 23.8123C207.419 24.3499 207.653 24.6024 208.079 24.6868C208.505 24.7712 208.877 24.4846 209.138 24.1244C209.399 23.7643 209.688 22.9462 209.664 22.272C209.639 21.5977 209.475 21.1531 208.865 20.7517C208.255 20.3502 207.613 20.5035 207.613 20.5035" stroke="white" stroke-linecap="round"/>
<path d="M222.237 14.4364C222.237 14.4364 222.398 14.9142 222.853 14.7976C223.309 14.6811 223.677 14.1986 223.783 13.6593C223.89 13.12 223.774 12.7957 223.416 12.5505C223.058 12.3052 222.603 12.4218 222.221 12.65C221.839 12.8782 221.252 13.5165 221.008 14.1458C220.765 14.7751 220.741 15.2486 221.144 15.8579C221.546 16.4672 222.196 16.579 222.196 16.579" stroke="white" stroke-linecap="round"/>
<path d="M222.046 22.4888C222.046 22.4888 222.382 22.113 222.755 22.3996C223.127 22.6861 223.276 23.2746 223.161 23.8123C223.047 24.3499 222.812 24.6024 222.387 24.6868C221.961 24.7712 221.588 24.4846 221.327 24.1244C221.066 23.7643 220.778 22.9462 220.802 22.272C220.826 21.5977 220.991 21.1531 221.601 20.7517C222.211 20.3502 222.853 20.5035 222.853 20.5035" stroke="white" stroke-linecap="round"/>
</svg>
