<svg width="128" height="277" viewBox="0 0 128 277" fill="none" xmlns="http://www.w3.org/2000/svg">
<g opacity="0.15" filter="url(#filter0_f_11_310)">
<path d="M1 90.1458C1 90.1458 14 96.6458 22.5 101.646C31.0474 106.674 43 118.146 43 118.146L34.1893 96.6937C40.1431 96.1432 53.188 96.0401 62.5 96C72.2313 95.9581 85.9276 96.1335 91.953 96.7013L83 118.5C83 118.5 94.9526 107.028 103.5 102C112 97 125 90.5 125 90.5C125 90.5 112.5 85.0015 103.5 79C95.1485 73.431 83 62.3542 83 62.3542L91.5733 83.3369C85.3784 83.9198 72.0716 84.0499 62.5 84C53.1998 83.9515 40.2802 83.8659 34.291 83.3149L43 62C43 62 30.8515 73.0768 22.5 78.6458C13.5 84.6473 1 90.1458 1 90.1458Z" fill="black"/>
</g>
<path d="M2 88.1458C2 88.1458 15 94.6458 23.5 99.6458C32.0474 104.674 44 116.146 44 116.146L35.1893 94.6937C41.1431 94.1432 54.188 94.0401 63.5 94C73.2313 93.9581 86.9276 94.1335 92.953 94.7013L84 116.5C84 116.5 95.9526 105.028 104.5 100C113 95 126 88.5 126 88.5C126 88.5 113.5 83.0015 104.5 77C96.1485 71.431 84 60.3542 84 60.3542L92.5733 81.3369C86.3784 81.9198 73.0716 82.0499 63.5 82C54.1998 81.9515 41.2802 81.8659 35.291 81.3149L44 60C44 60 31.8515 71.0768 23.5 76.6458C14.5 82.6473 2 88.1458 2 88.1458Z" fill="#DF9D01"/>
<path d="M2 88.1458C2 88.1458 15 94.6458 23.5 99.6458C32.0474 104.674 44 116.146 44 116.146L35.1893 94.6937C41.1431 94.1432 53.688 94.0401 63 94C72.7313 93.9581 86.9276 94.1335 92.953 94.7013L84 116.5C84 116.5 95.9526 105.028 104.5 100C113 95 126 88.5 126 88.5C126 88.5 113.5 83.0015 104.5 77C96.1485 71.431 84 60.3542 84 60.3542L92.5733 81.3369C86.3784 81.9198 72.5716 82.0499 63 82C53.6998 81.9515 41.2802 81.8659 35.291 81.3149L44 60C44 60 31.8515 71.0768 23.5 76.6458C14.5 82.6473 2 88.1458 2 88.1458Z" fill="url(#paint0_radial_11_310)"/>
<g opacity="0.15" filter="url(#filter1_f_11_310)">
<path d="M104.75 204.5C104.75 226.898 104.75 243.393 92.7501 262C86.2988 272.004 70.7138 276 61.7501 276C52.7865 276 37.2013 272.004 30.75 262C19.7498 244.943 18.25 226.898 18.25 204.5C18.25 187.227 19.6247 163.5 25.75 149.5C29.2502 141.5 50.0988 136 61.7501 136C73.4015 136 91.7289 140 96.75 149.5C102.828 161 104.75 187.227 104.75 204.5Z" fill="black"/>
</g>
<path d="M107.75 202.5C107.75 224.898 107.75 241.393 95.7501 260C89.2988 270.004 73.7138 274 64.7501 274C55.7865 274 40.2013 270.004 33.75 260C22.7498 242.943 21.25 224.898 21.25 202.5C21.25 185.227 22.6247 161.5 28.75 147.5C32.2502 139.5 53.0988 134 64.7501 134C76.4015 134 94.7289 138 99.75 147.5C105.828 159 107.75 185.227 107.75 202.5Z" fill="black"/>
<path d="M65.2502 134.502C70.9532 134.558 78.1588 135.555 84.5806 137.663C91.2174 139.841 96.8922 143.163 99.3081 147.734C102.301 153.396 104.293 162.747 105.533 172.896C106.747 182.83 107.231 193.462 107.25 202H65.2502V134.502Z" fill="black" stroke="#191919"/>
<path d="M21.7504 202C21.7635 193.481 22.1146 183.456 23.1999 173.829C24.3074 164.004 26.1757 154.631 29.2081 147.7C30.0234 145.837 31.8818 144.06 34.4779 142.44C37.0628 140.827 40.3219 139.404 43.8519 138.224C50.7133 135.931 58.5257 134.579 64.2501 134.503V202H21.7504Z" fill="#DF9D01" stroke="#191919"/>
<path d="M64.7501 134V202.5H21.25C21.25 185.227 22.6247 161.5 28.75 147.5C32.2502 139.5 53.0988 134 64.7501 134Z" fill="url(#paint1_radial_11_310)"/>
<rect x="59.75" y="151.5" width="9" height="18" rx="2.5" fill="black" stroke="#555555"/>
<defs>
<filter id="filter0_f_11_310" x="0" y="61" width="126" height="58.5" filterUnits="userSpaceOnUse" color-interpolation-filters="sRGB">
<feFlood flood-opacity="0" result="BackgroundImageFix"/>
<feBlend mode="normal" in="SourceGraphic" in2="BackgroundImageFix" result="shape"/>
<feGaussianBlur stdDeviation="0.5" result="effect1_foregroundBlur_11_310"/>
</filter>
<filter id="filter1_f_11_310" x="17.25" y="135" width="88.5" height="142" filterUnits="userSpaceOnUse" color-interpolation-filters="sRGB">
<feFlood flood-opacity="0" result="BackgroundImageFix"/>
<feBlend mode="normal" in="SourceGraphic" in2="BackgroundImageFix" result="shape"/>
<feGaussianBlur stdDeviation="0.5" result="effect1_foregroundBlur_11_310"/>
</filter>
<radialGradient id="paint0_radial_11_310" cx="0" cy="0" r="1" gradientUnits="userSpaceOnUse" gradientTransform="translate(119.5 121) rotate(-140.914) scale(188.741 38.7746)">
<stop offset="0.309418" stop-color="#F6F6F6" stop-opacity="0"/>
<stop offset="0.543039" stop-color="#F6F6F6" stop-opacity="0.56"/>
<stop offset="0.758214" stop-color="#F6F6F6" stop-opacity="0"/>
</radialGradient>
<radialGradient id="paint1_radial_11_310" cx="0" cy="0" r="1" gradientUnits="userSpaceOnUse" gradientTransform="translate(21.25 193) rotate(-63.536) scale(126.785 64.9819)">
<stop offset="0.298131" stop-color="white" stop-opacity="0"/>
<stop offset="0.501794" stop-color="#F6F6F6" stop-opacity="0.51"/>
<stop offset="0.647616" stop-color="#F6F6F6" stop-opacity="0"/>
</radialGradient>
</defs>
</svg>
