<svg width="91" height="282" viewBox="0 0 91 282" fill="none" xmlns="http://www.w3.org/2000/svg">
<g opacity="0.15" filter="url(#filter0_f_11_309)">
<path d="M87.5 209.5C87.5 231.898 87.5 248.393 75.5001 267C69.0488 277.004 53.4638 281 44.5001 281C35.5365 281 19.9513 277.004 13.5 267C2.49983 249.943 1 231.898 1 209.5C1 192.227 2.37471 168.5 8.5 154.5C12.0002 146.5 32.8488 141 44.5001 141C56.1515 141 74.4789 145 79.5 154.5C85.5782 166 87.5 192.227 87.5 209.5Z" fill="black"/>
</g>
<path d="M90.5 207.5C90.5 229.898 90.5 246.393 78.5001 265C72.0488 275.004 56.4638 279 47.5001 279C38.5365 279 22.9513 275.004 16.5 265C5.49983 247.943 4 229.898 4 207.5C4 190.227 5.37471 166.5 11.5 152.5C15.0002 144.5 35.8488 139 47.5001 139C59.1515 139 77.4789 143 82.5 152.5C88.5782 164 90.5 190.227 90.5 207.5Z" fill="black"/>
<path d="M48.0002 139.502C53.7032 139.558 60.9088 140.555 67.3306 142.663C73.9674 144.841 79.6422 148.163 82.0581 152.734C85.0507 158.396 87.0435 167.747 88.2831 177.896C89.4966 187.83 89.9814 198.462 89.9996 207H48.0002V139.502Z" fill="black" stroke="#191919"/>
<path d="M4.50038 207C4.5135 198.481 4.86462 188.456 5.94987 178.829C7.0574 169.004 8.92568 159.631 11.9581 152.7C12.7734 150.837 14.6318 149.06 17.2279 147.44C19.8128 145.827 23.0719 144.404 26.6019 143.224C33.4633 140.931 41.2757 139.579 47.0001 139.503V207H4.50038Z" fill="#DF9D01" stroke="#191919"/>
<path d="M47.5001 139V207.5H4C4 190.227 5.37471 166.5 11.5 152.5C15.0002 144.5 35.8488 139 47.5001 139Z" fill="url(#paint0_radial_11_309)"/>
<rect x="42.5" y="156.5" width="9" height="18" rx="2.5" fill="black" stroke="#555555"/>
<g opacity="0.15" filter="url(#filter1_f_11_309)">
<path d="M49.1458 127C49.1458 127 55.6458 114 60.6458 105.5C65.6737 96.9526 77.1458 85 77.1458 85L55.6937 93.8107C55.1432 87.8569 55.0401 74.812 55 65.5C54.9581 55.7687 55.1335 42.0724 55.7013 36.047L77.5 45C77.5 45 66.0279 33.0474 61 24.5C56 16 49.5 3 49.5 3C49.5 3 44.0015 15.5 38 24.5C32.431 32.8515 21.3542 45 21.3542 45L42.3369 36.4267C42.9198 42.6216 43.0499 55.9284 43 65.5C42.9515 74.8002 42.8659 87.7198 42.3149 93.709L21 85C21 85 32.0768 97.1485 37.6458 105.5C43.6473 114.5 49.1458 127 49.1458 127Z" fill="black"/>
</g>
<path d="M47.1458 126C47.1458 126 53.6458 113 58.6458 104.5C63.6737 95.9526 75.1458 84 75.1458 84L53.6937 92.8107C53.1432 86.8569 53.0401 73.812 53 64.5C52.9581 54.7687 53.1335 41.0724 53.7013 35.047L75.5 44C75.5 44 64.0279 32.0474 59 23.5C54 15 47.5 2 47.5 2C47.5 2 42.0015 14.5 36 23.5C30.431 31.8515 19.3542 44 19.3542 44L40.3369 35.4267C40.9198 41.6216 41.0499 54.9284 41 64.5C40.9515 73.8002 40.8659 86.7198 40.3149 92.709L19 84C19 84 30.0768 96.1485 35.6458 104.5C41.6473 113.5 47.1458 126 47.1458 126Z" fill="#DF9D01"/>
<path d="M47.1458 126C47.1458 126 53.6458 113 58.6458 104.5C63.6737 95.9526 75.1458 84 75.1458 84L53.6937 92.8107C53.1432 86.8569 53.0401 74.312 53 65C52.9581 55.2687 53.1335 41.0724 53.7013 35.047L75.5 44C75.5 44 64.0279 32.0474 59 23.5C54 15 47.5 2 47.5 2C47.5 2 42.0015 14.5 36 23.5C30.431 31.8515 19.3542 44 19.3542 44L40.3369 35.4267C40.9198 41.6216 41.0499 55.4284 41 65C40.9515 74.3002 40.8659 86.7198 40.3149 92.709L19 84C19 84 30.0768 96.1485 35.6458 104.5C41.6473 113.5 47.1458 126 47.1458 126Z" fill="url(#paint1_radial_11_309)"/>
<defs>
<filter id="filter0_f_11_309" x="0" y="140" width="88.5" height="142" filterUnits="userSpaceOnUse" color-interpolation-filters="sRGB">
<feFlood flood-opacity="0" result="BackgroundImageFix"/>
<feBlend mode="normal" in="SourceGraphic" in2="BackgroundImageFix" result="shape"/>
<feGaussianBlur stdDeviation="0.5" result="effect1_foregroundBlur_11_309"/>
</filter>
<filter id="filter1_f_11_309" x="20" y="2" width="58.5" height="126" filterUnits="userSpaceOnUse" color-interpolation-filters="sRGB">
<feFlood flood-opacity="0" result="BackgroundImageFix"/>
<feBlend mode="normal" in="SourceGraphic" in2="BackgroundImageFix" result="shape"/>
<feGaussianBlur stdDeviation="0.5" result="effect1_foregroundBlur_11_309"/>
</filter>
<radialGradient id="paint0_radial_11_309" cx="0" cy="0" r="1" gradientUnits="userSpaceOnUse" gradientTransform="translate(4 198) rotate(-63.536) scale(126.785 64.9819)">
<stop offset="0.298131" stop-color="white" stop-opacity="0"/>
<stop offset="0.501794" stop-color="#F6F6F6" stop-opacity="0.51"/>
<stop offset="0.647616" stop-color="#F6F6F6" stop-opacity="0"/>
</radialGradient>
<radialGradient id="paint1_radial_11_309" cx="0" cy="0" r="1" gradientUnits="userSpaceOnUse" gradientTransform="translate(106 101.5) rotate(-133.383) scale(288.261 39.7601)">
<stop offset="0.309418" stop-color="#F6F6F6" stop-opacity="0"/>
<stop offset="0.543039" stop-color="#F6F6F6" stop-opacity="0.56"/>
<stop offset="0.758214" stop-color="#F6F6F6" stop-opacity="0"/>
</radialGradient>
</defs>
</svg>
